<svg xmlns="http://www.w3.org/2000/svg" viewBox="0 0 357.4 367.7">
  <style type="text/css">
	.st0{fill:none;stroke:#FFFFFF;stroke-width:2.3038;stroke-linejoin:bevel;stroke-miterlimit:10;}
</style>
  <g>
<polygon class="st0" points="4.2,363.3 21.1,363.3 21.1,317.8 	"/>
<polygon class="st0" points="336.2,317.8 336.2,363.3 353,363.3 	"/>
<polygon class="st0" points="31.7,363.3 21.1,363.3 21.1,363.5 116.9,363.5 116.9,363.3 105.1,363.3 	"/>
<polygon class="st0" points="51.4,97.4 28.4,97.4 28.4,54.4 21.1,40.5 21.1,317.8 81.6,154.1 	"/>
<polygon class="st0" points="319.1,271.6 328.8,271.6 328.8,297.9 336.2,317.8 336.2,40.5 275.7,154.1 	"/>
<polygon class="st0" points="252.1,363.3 241.2,363.3 241.3,363.5 336.2,363.5 336.2,363.3 328.8,363.3 	"/>
<polygon class="st0" points="229.6,271.6 319.1,271.6 275.7,154.1 229.6,240.5 	"/>
<polygon class="st0" points="161.8,97.4 166.1,105.9 170.8,97.4 	"/>
<polygon class="st0" points="31.7,347.2 109.8,206.9 81.6,154.1 21.1,317.8 21.1,363.3 31.7,363.3 	"/>
<polygon class="st0" points="328.8,297.9 328.8,363.3 336.2,363.3 336.2,317.8 	"/>
<polygon class="st0" points="240.8,8.7 240.8,6.4 242,6.4 318.3,6.4 318.3,5.7 220.8,5.7 229.9,30.3 	"/>
<polygon class="st0" points="116.9,6.4 129.2,25.4 136.5,5.7 28.4,5.7 28.4,6.4 115.3,6.4 	"/>
<polygon class="st0" points="123.6,314 116.9,331.9 116.9,363.3 127.7,363.3 127.7,314 	"/>
<polygon class="st0" points="229.6,363.3 241.2,363.3 229.6,345.3 	"/>
<polygon class="st0" points="116.9,220.2 116.9,331.9 123.6,314 127.7,314 127.7,240.5 	"/>
<polygon class="st0" points="187.1,114.5 229.9,30.3 220.8,5.7 136.5,5.7 129.2,25.4 	"/>
<polygon class="st0" points="319.1,271.6 328.8,297.9 328.8,271.6 	"/>
<polygon class="st0" points="233.7,314 229.6,314 229.6,345.3 241.2,363.3 252.1,363.3 	"/>
<polygon class="st0" points="28.4,97.4 51.4,97.4 28.4,54.4 	"/>
<polygon class="st0" points="105.1,363.3 116.9,363.3 116.9,331.9 	"/>
<polygon class="st0" points="240.8,6.4 240.8,8.7 242,6.4 	"/>
<polygon class="st0" points="116.9,6.4 115.3,6.4 127.4,30.2 129.2,25.4 	"/>
<polygon class="st0" points="170.8,97.4 166.1,105.9 178.9,130.8 187.1,114.5 129.2,25.4 127.4,30.2 161.8,97.4 	"/>
<polygon class="st0" points="109.8,206.9 31.7,347.2 31.7,363.3 105.1,363.3 116.9,331.9 116.9,220.2 	"/>
<polygon class="st0" points="229.6,271.6 229.6,314 233.7,314 252.1,363.3 328.8,363.3 328.8,297.9 319.1,271.6 	"/>
<polygon class="st0" points="2.9,6.4 21.1,40.5 21.1,6.4 	"/>
<rect x="127.7" y="363.3" class="st0" width="101.8" height="0.2"/>
<polygon class="st0" points="354.4,6.4 336.2,6.4 336.2,40.5 	"/>
<polygon class="st0" points="179.1,271.6 181.9,271.6 180.4,269.2 	"/>
<polygon class="st0" points="116.9,194.2 123.9,181.7 116.9,170.9 	"/>
<polygon class="st0" points="240.8,160.8 229.9,180.4 240.8,197.2 	"/>
<polygon class="st0" points="207,230.6 205.2,224.7 201.9,230.6 	"/>
<polygon class="st0" points="28.4,6.4 21.1,6.4 21.1,40.5 28.4,54.4 	"/>
<polygon class="st0" points="51.4,97.4 81.6,154.1 102.6,97.4 	"/>
<polygon class="st0" points="263.3,120.6 275.7,154.1 336.2,40.5 336.2,6.4 318.3,6.4 318.3,21.9 	"/>
<polygon class="st0" points="116.9,170.9 123.9,181.7 166.1,105.9 161.8,97.4 102.6,97.4 81.6,154.1 109.8,206.9 116.9,194.2 	"/>
<polygon class="st0" points="240.8,197.2 229.9,180.4 205.2,224.7 207,230.6 201.9,230.6 180.4,269.2 181.9,271.6 229.6,271.6
  229.6,240.5 275.7,154.1 263.3,120.6 240.8,160.8 	"/>
<polygon class="st0" points="240.8,8.7 229.9,30.3 240.8,60 	"/>
<polygon class="st0" points="150.3,230.6 155.4,230.6 151.9,225.2 	"/>
<polygon class="st0" points="209.3,314 127.7,314 127.7,363.3 229.6,363.3 229.6,345.3 	"/>
<polygon class="st0" points="179.1,271.6 180.4,269.2 155.4,230.6 150.3,230.6 151.9,225.2 123.9,181.7 116.9,194.2 116.9,220.2
  127.7,240.5 127.7,314 209.3,314 181.9,271.6 	"/>
<polygon class="st0" points="240.8,160.8 240.8,60 229.9,30.3 187.1,114.5 229.9,180.4 	"/>
<polygon class="st0" points="51.4,97.4 102.6,97.4 127.4,30.2 115.3,6.4 28.4,6.4 28.4,54.4 	"/>
<polygon class="st0" points="229.6,345.3 229.6,314 209.3,314 	"/>
<polygon class="st0" points="240.8,8.7 240.8,60 263.3,120.6 318.3,21.9 318.3,6.4 242,6.4 	"/>
<polygon class="st0" points="205.2,224.7 178.9,136.1 151.9,225.2 155.4,230.6 201.9,230.6 	"/>
<polygon class="st0" points="181.9,271.6 209.3,314 229.6,314 229.6,271.6 	"/>
<polygon class="st0" points="127.4,30.2 102.6,97.4 161.8,97.4 	"/>
<polygon class="st0" points="116.9,194.2 109.8,206.9 116.9,220.2 	"/>
<polygon class="st0" points="166.1,105.9 123.9,181.7 151.9,225.2 178.9,136.1 205.2,224.7 229.9,180.4 187.1,114.5 178.9,130.8
  "/>
<polygon class="st0" points="155.4,230.6 180.4,269.2 201.9,230.6 	"/>
<polygon class="st0" points="263.3,120.6 240.8,60 240.8,160.8 	"/>
</g>
</svg>
